<mxfile host="app.diagrams.net" modified="2024-01-12T12:00:00.000Z">
  <diagram name="Strona-1" id="xQzMNefLtNpy1ABBVNCl">
    <mxGraphModel grid="1" page="1" gridSize="10" guides="1" tooltips="1" connect="1" arrows="1" fold="1" pageScale="1" pageWidth="1169" pageHeight="1654" background="#ffffff">
      <root>
        <mxCell id="0"/>
        <mxCell id="1" parent="0"/>
        
        <!-- Actor -->
        <mxCell id="actor1" value="User" style="shape=umlActor;verticalLabelPosition=bottom;verticalAlign=top;html=1;strokeWidth=2;" vertex="1" parent="1">
          <mxGeometry x="40" y="700" width="90" height="170" as="geometry"/>
        </mxCell>

        <!-- Scenariusz CRUDS -->
        <mxCell id="UC1" value="U1: Utwórz scenariusz" style="ellipse;whiteSpace=wrap;html=1;" vertex="1" parent="1">
          <mxGeometry x="350" y="50" width="200" height="40" as="geometry"/>
        </mxCell>
        <mxCell id="UC2" value="U2: Przeglądaj scenariusz" style="ellipse;whiteSpace=wrap;html=1;" vertex="1" parent="1">
          <mxGeometry x="350" y="100" width="200" height="40" as="geometry"/>
        </mxCell>
        <mxCell id="UC3" value="U3: Aktualizuj scenariusz" style="ellipse;whiteSpace=wrap;html=1;" vertex="1" parent="1">
          <mxGeometry x="350" y="150" width="200" height="40" as="geometry"/>
        </mxCell>
        <mxCell id="UC4" value="U4: Usuń scenariusz" style="ellipse;whiteSpace=wrap;html=1;" vertex="1" parent="1">
          <mxGeometry x="350" y="200" width="200" height="40" as="geometry"/>
        </mxCell>
        <mxCell id="UC5" value="U5: Wyszukaj scenariusz" style="ellipse;whiteSpace=wrap;html=1;" vertex="1" parent="1">
          <mxGeometry x="350" y="250" width="200" height="40" as="geometry"/>
        </mxCell>

        <!-- Faza scenariusza CRUD -->
        <mxCell id="UC6" value="U6: Utwórz fazę" style="ellipse;whiteSpace=wrap;html=1;" vertex="1" parent="1">
          <mxGeometry x="350" y="300" width="200" height="40" as="geometry"/>
        </mxCell>
        <mxCell id="UC7" value="U7: Przeglądaj fazę" style="ellipse;whiteSpace=wrap;html=1;" vertex="1" parent="1">
          <mxGeometry x="350" y="350" width="200" height="40" as="geometry"/>
        </mxCell>
        <mxCell id="UC8" value="U8: Aktualizuj fazę" style="ellipse;whiteSpace=wrap;html=1;" vertex="1" parent="1">
          <mxGeometry x="350" y="400" width="200" height="40" as="geometry"/>
        </mxCell>
        <mxCell id="UC9" value="U9: Usuń fazę" style="ellipse;whiteSpace=wrap;html=1;" vertex="1" parent="1">
          <mxGeometry x="350" y="450" width="200" height="40" as="geometry"/>
        </mxCell>

        <!-- Typ CRUDS -->
        <mxCell id="UC10" value="U10: Utwórz typ" style="ellipse;whiteSpace=wrap;html=1;" vertex="1" parent="1">
          <mxGeometry x="350" y="500" width="200" height="40" as="geometry"/>
        </mxCell>
        <mxCell id="UC11" value="U11: Przeglądaj typ" style="ellipse;whiteSpace=wrap;html=1;" vertex="1" parent="1">
          <mxGeometry x="350" y="550" width="200" height="40" as="geometry"/>
        </mxCell>
        <mxCell id="UC12" value="U12: Aktualizuj typ" style="ellipse;whiteSpace=wrap;html=1;" vertex="1" parent="1">
          <mxGeometry x="350" y="600" width="200" height="40" as="geometry"/>
        </mxCell>
        <mxCell id="UC13" value="U13: Usuń typ" style="ellipse;whiteSpace=wrap;html=1;" vertex="1" parent="1">
          <mxGeometry x="350" y="650" width="200" height="40" as="geometry"/>
        </mxCell>
        <mxCell id="UC14" value="U14: Wyszukaj typ" style="ellipse;whiteSpace=wrap;html=1;" vertex="1" parent="1">
          <mxGeometry x="350" y="700" width="200" height="40" as="geometry"/>
        </mxCell>

        <!-- Szablon CRUDS -->
        <mxCell id="UC15" value="U15: Utwórz szablon" style="ellipse;whiteSpace=wrap;html=1;" vertex="1" parent="1">
          <mxGeometry x="350" y="750" width="200" height="40" as="geometry"/>
        </mxCell>
        <mxCell id="UC16" value="U16: Przeglądaj szablon" style="ellipse;whiteSpace=wrap;html=1;" vertex="1" parent="1">
          <mxGeometry x="350" y="800" width="200" height="40" as="geometry"/>
        </mxCell>
        <mxCell id="UC17" value="U17: Aktualizuj szablon" style="ellipse;whiteSpace=wrap;html=1;" vertex="1" parent="1">
          <mxGeometry x="350" y="850" width="200" height="40" as="geometry"/>
        </mxCell>
        <mxCell id="UC18" value="U18: Usuń szablon" style="ellipse;whiteSpace=wrap;html=1;" vertex="1" parent="1">
          <mxGeometry x="350" y="900" width="200" height="40" as="geometry"/>
        </mxCell>
        <mxCell id="UC19" value="U19: Wyszukaj szablon" style="ellipse;whiteSpace=wrap;html=1;" vertex="1" parent="1">
          <mxGeometry x="350" y="950" width="200" height="40" as="geometry"/>
        </mxCell>

        <!-- Asocjacja CRUDS -->
        <mxCell id="UC20" value="U20: Utwórz asocjację" style="ellipse;whiteSpace=wrap;html=1;" vertex="1" parent="1">
          <mxGeometry x="600" y="50" width="200" height="40" as="geometry"/>
        </mxCell>
        <mxCell id="UC21" value="U21: Przeglądaj asocjację" style="ellipse;whiteSpace=wrap;html=1;" vertex="1" parent="1">
          <mxGeometry x="600" y="100" width="200" height="40" as="geometry"/>
        </mxCell>
        <mxCell id="UC22" value="U22: Aktualizuj asocjację" style="ellipse;whiteSpace=wrap;html=1;" vertex="1" parent="1">
          <mxGeometry x="600" y="150" width="200" height="40" as="geometry"/>
        </mxCell>
        <mxCell id="UC23" value="U23: Usuń asocjację" style="ellipse;whiteSpace=wrap;html=1;" vertex="1" parent="1">
          <mxGeometry x="600" y="200" width="200" height="40" as="geometry"/>
        </mxCell>
        <mxCell id="UC24" value="U24: Wyszukaj asocjację" style="ellipse;whiteSpace=wrap;html=1;" vertex="1" parent="1">
          <mxGeometry x="600" y="250" width="200" height="40" as="geometry"/>
        </mxCell>

        <!-- Obiekt CRUD -->
        <mxCell id="UC25" value="U25: Utwórz obiekt" style="ellipse;whiteSpace=wrap;html=1;" vertex="1" parent="1">
          <mxGeometry x="600" y="300" width="200" height="40" as="geometry"/>
        </mxCell>
        <mxCell id="UC26" value="U26: Przeglądaj obiekt" style="ellipse;whiteSpace=wrap;html=1;" vertex="1" parent="1">
          <mxGeometry x="600" y="350" width="200" height="40" as="geometry"/>
        </mxCell>
        <mxCell id="UC27" value="U27: Aktualizuj obiekt" style="ellipse;whiteSpace=wrap;html=1;" vertex="1" parent="1">
          <mxGeometry x="600" y="400" width="200" height="40" as="geometry"/>
        </mxCell>
        <mxCell id="UC28" value="U28: Usuń obiekt" style="ellipse;whiteSpace=wrap;html=1;" vertex="1" parent="1">
          <mxGeometry x="600" y="450" width="200" height="40" as="geometry"/>
        </mxCell>

        <!-- Wątek CRUD -->
        <mxCell id="UC29" value="U29: Utwórz wątek" style="ellipse;whiteSpace=wrap;html=1;" vertex="1" parent="1">
          <mxGeometry x="600" y="500" width="200" height="40" as="geometry"/>
        </mxCell>
        <mxCell id="UC30" value="U30: Przeglądaj wątek" style="ellipse;whiteSpace=wrap;html=1;" vertex="1" parent="1">
          <mxGeometry x="600" y="550" width="200" height="40" as="geometry"/>
        </mxCell>
        <mxCell id="UC31" value="U31: Aktualizuj wątek" style="ellipse;whiteSpace=wrap;html=1;" vertex="1" parent="1">
          <mxGeometry x="600" y="600" width="200" height="40" as="geometry"/>
        </mxCell>
        <mxCell id="UC32" value="U32: Usuń wątek" style="ellipse;whiteSpace=wrap;html=1;" vertex="1" parent="1">
          <mxGeometry x="600" y="650" width="200" height="40" as="geometry"/>
        </mxCell>

        <!-- Wydarzenie CRUD -->
        <mxCell id="UC33" value="U33: Utwórz wydarzenie" style="ellipse;whiteSpace=wrap;html=1;" vertex="1" parent="1">
          <mxGeometry x="600" y="700" width="200" height="40" as="geometry"/>
        </mxCell>
        <mxCell id="UC34" value="U34: Przeglądaj wydarzenie" style="ellipse;whiteSpace=wrap;html=1;" vertex="1" parent="1">
          <mxGeometry x="600" y="750" width="200" height="40" as="geometry"/>
        </mxCell>
        <mxCell id="UC35" value="U35: Aktualizuj wydarzenie" style="ellipse;whiteSpace=wrap;html=1;" vertex="1" parent="1">
          <mxGeometry x="600" y="800" width="200" height="40" as="geometry"/>
        </mxCell>
        <mxCell id="UC36" value="U36: Usuń wydarzenie" style="ellipse;whiteSpace=wrap;html=1;" vertex="1" parent="1">
          <mxGeometry x="600" y="850" width="200" height="40" as="geometry"/>
        </mxCell>

        <!-- Atrybut CRUD -->
        <mxCell id="UC37" value="U37: Utwórz atrybut" style="ellipse;whiteSpace=wrap;html=1;" vertex="1" parent="1">
          <mxGeometry x="600" y="900" width="200" height="40" as="geometry"/>
        </mxCell>
        <mxCell id="UC38" value="U38: Przeglądaj atrybut" style="ellipse;whiteSpace=wrap;html=1;" vertex="1" parent="1">
          <mxGeometry x="600" y="950" width="200" height="40" as="geometry"/>
        </mxCell>
        <mxCell id="UC39" value="U39: Aktualizuj atrybut" style="ellipse;whiteSpace=wrap;html=1;" vertex="1" parent="1">
          <mxGeometry x="600" y="1000" width="200" height="40" as="geometry"/>
        </mxCell>
        <mxCell id="UC40" value="U40: Usuń atrybut" style="ellipse;whiteSpace=wrap;html=1;" vertex="1" parent="1">
          <mxGeometry x="600" y="1050" width="200" height="40" as="geometry"/>
        </mxCell>

        <!-- Rozgałęzienie CRUD -->
        <mxCell id="UC41" value="U41: Utwórz rozgałęzienie" style="ellipse;whiteSpace=wrap;html=1;" vertex="1" parent="1">
          <mxGeometry x="600" y="1100" width="200" height="40" as="geometry"/>
        </mxCell>
        <mxCell id="UC42" value="U42: Przeglądaj rozgałęzienie" style="ellipse;whiteSpace=wrap;html=1;" vertex="1" parent="1">
          <mxGeometry x="600" y="1150" width="200" height="40" as="geometry"/>
        </mxCell>
        <mxCell id="UC43" value="U43: Aktualizuj rozgałęzienie" style="ellipse;whiteSpace=wrap;html=1;" vertex="1" parent="1">
          <mxGeometry x="600" y="1200" width="200" height="40" as="geometry"/>
        </mxCell>
        <mxCell id="UC44" value="U44: Usuń rozgałęzienie" style="ellipse;whiteSpace=wrap;html=1;" vertex="1" parent="1">
          <mxGeometry x="600" y="1250" width="200" height="40" as="geometry"/>
        </mxCell>

       <!-- Connections from actor to all use cases -->
        <!-- UC1-UC44 connections -->
        <mxCell id="conn2" value="" style="endArrow=none;html=1;rounded=0;" edge="1" parent="1" source="actor1" target="UC2">
          <mxGeometry relative="1" as="geometry"/>
        </mxCell>
        <mxCell id="conn3" value="" style="endArrow=none;html=1;rounded=0;" edge="1" parent="1" source="actor1" target="UC3">
          <mxGeometry relative="1" as="geometry"/>
        </mxCell>
        <mxCell id="conn4" value="" style="endArrow=none;html=1;rounded=0;" edge="1" parent="1" source="actor1" target="UC4">
          <mxGeometry relative="1" as="geometry"/>
        </mxCell>
        <mxCell id="conn5" value="" style="endArrow=none;html=1;rounded=0;" edge="1" parent="1" source="actor1" target="UC5">
          <mxGeometry relative="1" as="geometry"/>
        </mxCell>
        <mxCell id="conn6" value="" style="endArrow=none;html=1;rounded=0;" edge="1" parent="1" source="actor1" target="UC6">
          <mxGeometry relative="1" as="geometry"/>
        </mxCell>
        <mxCell id="conn7" value="" style="endArrow=none;html=1;rounded=0;" edge="1" parent="1" source="actor1" target="UC7">
          <mxGeometry relative="1" as="geometry"/>
        </mxCell>
        <mxCell id="conn8" value="" style="endArrow=none;html=1;rounded=0;" edge="1" parent="1" source="actor1" target="UC8">
          <mxGeometry relative="1" as="geometry"/>
        </mxCell>
        <mxCell id="conn9" value="" style="endArrow=none;html=1;rounded=0;" edge="1" parent="1" source="actor1" target="UC9">
          <mxGeometry relative="1" as="geometry"/>
        </mxCell>
        <mxCell id="conn10" value="" style="endArrow=none;html=1;rounded=0;" edge="1" parent="1" source="actor1" target="UC10">
          <mxGeometry relative="1" as="geometry"/>
        </mxCell>
        <mxCell id="conn11" value="" style="endArrow=none;html=1;rounded=0;" edge="1" parent="1" source="actor1" target="UC11">
          <mxGeometry relative="1" as="geometry"/>
        </mxCell>
        <mxCell id="conn12" value="" style="endArrow=none;html=1;rounded=0;" edge="1" parent="1" source="actor1" target="UC12">
          <mxGeometry relative="1" as="geometry"/>
        </mxCell>
        <mxCell id="conn13" value="" style="endArrow=none;html=1;rounded=0;" edge="1" parent="1" source="actor1" target="UC13">
          <mxGeometry relative="1" as="geometry"/>
        </mxCell>
        <mxCell id="conn14" value="" style="endArrow=none;html=1;rounded=0;" edge="1" parent="1" source="actor1" target="UC14">
          <mxGeometry relative="1" as="geometry"/>
        </mxCell>
        <mxCell id="conn15" value="" style="endArrow=none;html=1;rounded=0;" edge="1" parent="1" source="actor1" target="UC15">
          <mxGeometry relative="1" as="geometry"/>
        </mxCell>
        <mxCell id="conn16" value="" style="endArrow=none;html=1;rounded=0;" edge="1" parent="1" source="actor1" target="UC16">
          <mxGeometry relative="1" as="geometry"/>
        </mxCell>
        <mxCell id="conn17" value="" style="endArrow=none;html=1;rounded=0;" edge="1" parent="1" source="actor1" target="UC17">
          <mxGeometry relative="1" as="geometry"/>
        </mxCell>
        <mxCell id="conn18" value="" style="endArrow=none;html=1;rounded=0;" edge="1" parent="1" source="actor1" target="UC18">
          <mxGeometry relative="1" as="geometry"/>
        </mxCell>
        <mxCell id="conn19" value="" style="endArrow=none;html=1;rounded=0;" edge="1" parent="1" source="actor1" target="UC19">
          <mxGeometry relative="1" as="geometry"/>
        </mxCell>
        <mxCell id="conn20" value="" style="endArrow=none;html=1;rounded=0;" edge="1" parent="1" source="actor1" target="UC20">
          <mxGeometry relative="1" as="geometry"/>
        </mxCell>
        <mxCell id="conn21" value="" style="endArrow=none;html=1;rounded=0;" edge="1" parent="1" source="actor1" target="UC21">
          <mxGeometry relative="1" as="geometry"/>
        </mxCell>
        <mxCell id="conn22" value="" style="endArrow=none;html=1;rounded=0;" edge="1" parent="1" source="actor1" target="UC22">
          <mxGeometry relative="1" as="geometry"/>
        </mxCell>
        <mxCell id="conn23" value="" style="endArrow=none;html=1;rounded=0;" edge="1" parent="1" source="actor1" target="UC23">
          <mxGeometry relative="1" as="geometry"/>
        </mxCell>
        <mxCell id="conn24" value="" style="endArrow=none;html=1;rounded=0;" edge="1" parent="1" source="actor1" target="UC24">
          <mxGeometry relative="1" as="geometry"/>
        </mxCell>
        <mxCell id="conn25" value="" style="endArrow=none;html=1;rounded=0;" edge="1" parent="1" source="actor1" target="UC25">
          <mxGeometry relative="1" as="geometry"/>
        </mxCell>
        <mxCell id="conn26" value="" style="endArrow=none;html=1;rounded=0;" edge="1" parent="1" source="actor1" target="UC26">
          <mxGeometry relative="1" as="geometry"/>
        </mxCell>
        <mxCell id="conn27" value="" style="endArrow=none;html=1;rounded=0;" edge="1" parent="1" source="actor1" target="UC27">
          <mxGeometry relative="1" as="geometry"/>
        </mxCell>
        <mxCell id="conn28" value="" style="endArrow=none;html=1;rounded=0;" edge="1" parent="1" source="actor1" target="UC28">
          <mxGeometry relative="1" as="geometry"/>
        </mxCell>
        <mxCell id="conn29" value="" style="endArrow=none;html=1;rounded=0;" edge="1" parent="1" source="actor1" target="UC29">
          <mxGeometry relative="1" as="geometry"/>
        </mxCell>
        <mxCell id="conn30" value="" style="endArrow=none;html=1;rounded=0;" edge="1" parent="1" source="actor1" target="UC30">
          <mxGeometry relative="1" as="geometry"/>
        </mxCell>
        <mxCell id="conn31" value="" style="endArrow=none;html=1;rounded=0;" edge="1" parent="1" source="actor1" target="UC31">
          <mxGeometry relative="1" as="geometry"/>
        </mxCell>
        <mxCell id="conn32" value="" style="endArrow=none;html=1;rounded=0;" edge="1" parent="1" source="actor1" target="UC32">
          <mxGeometry relative="1" as="geometry"/>
        </mxCell>
        <mxCell id="conn33" value="" style="endArrow=none;html=1;rounded=0;" edge="1" parent="1" source="actor1" target="UC33">
          <mxGeometry relative="1" as="geometry"/>
        </mxCell>
        <mxCell id="conn34" value="" style="endArrow=none;html=1;rounded=0;" edge="1" parent="1" source="actor1" target="UC34">
          <mxGeometry relative="1" as="geometry"/>
        </mxCell>
        <mxCell id="conn35" value="" style="endArrow=none;html=1;rounded=0;" edge="1" parent="1" source="actor1" target="UC35">
          <mxGeometry relative="1" as="geometry"/>
        </mxCell>
        <mxCell id="conn36" value="" style="endArrow=none;html=1;rounded=0;" edge="1" parent="1" source="actor1" target="UC36">
          <mxGeometry relative="1" as="geometry"/>
        </mxCell>
        <mxCell id="conn37" value="" style="endArrow=none;html=1;rounded=0;" edge="1" parent="1" source="actor1" target="UC37">
          <mxGeometry relative="1" as="geometry"/>
        </mxCell>
        <mxCell id="conn38" value="" style="endArrow=none;html=1;rounded=0;" edge="1" parent="1" source="actor1" target="UC38">
          <mxGeometry relative="1" as="geometry"/>
        </mxCell>
        <mxCell id="conn39" value="" style="endArrow=none;html=1;rounded=0;" edge="1" parent="1" source="actor1" target="UC39">
          <mxGeometry relative="1" as="geometry"/>
        </mxCell>
        <mxCell id="conn40" value="" style="endArrow=none;html=1;rounded=0;" edge="1" parent="1" source="actor1" target="UC40">
          <mxGeometry relative="1" as="geometry"/>
        </mxCell>
        <mxCell id="conn41" value="" style="endArrow=none;html=1;rounded=0;" edge="1" parent="1" source="actor1" target="UC41">
          <mxGeometry relative="1" as="geometry"/>
        </mxCell>
        <mxCell id="conn42" value="" style="endArrow=none;html=1;rounded=0;" edge="1" parent="1" source="actor1" target="UC42">
          <mxGeometry relative="1" as="geometry"/>
        </mxCell>
        <mxCell id="conn43" value="" style="endArrow=none;html=1;rounded=0;" edge="1" parent="1" source="actor1" target="UC43">
          <mxGeometry relative="1" as="geometry"/>
        </mxCell>
        <mxCell id="conn44" value="" style="endArrow=none;html=1;rounded=0;" edge="1" parent="1" source="actor1" target="UC44">
          <mxGeometry relative="1" as="geometry"/>
        </mxCell>

      </root>
    </mxGraphModel>
  </diagram>
</mxfile>

